# xmcd
#
# Track frame offsets:
#	31636
#	47854
#	62277
#	79966
#	97119
#	112724
#	129793
#	148895
#	153303
#	171952
#	187387
#	203798
#	225042
#	242825
#	258175
#	272583
#
# Disc length: 3870 seconds
#
# Revision: 1
# Processed by: cddbd v1.5.1PL2 Copyright (c) Steve Scherf et al.
# Submitted via: audiograbber 1.83.01
#
DISCID=da0d7910
DTITLE=Jonesmann - S.J.
DYEAR=2006
DGENRE=Hip Hop/ Rap
TTITLE0=S.J.
TTITLE1=Bis der Letzte fällt
TTITLE2=Nachts
TTITLE3=Kein Platz
TTITLE4=Nenn mich Jones
TTITLE5=Der Bär
TTITLE6=Homies
TTITLE7=Skit
TTITLE8=Wir klärn des hier feat. Azad
TTITLE9=Mehr für mich
TTITLE10=Der neue Shit
TTITLE11=Bruderliebe PT.3
TTITLE12=Verlorene Kraft
TTITLE13=Brücken
TTITLE14=Long Island Ice Tea
TTITLE15=Der Soldat James Rhyme feat. Azad
EXTD=Hip Hop/ Rap
EXTT0=
EXTT1=
EXTT2=
EXTT3=
EXTT4=
EXTT5=
EXTT6=
EXTT7=
EXTT8=
EXTT9=
EXTT10=
EXTT11=
EXTT12=
EXTT13=
EXTT14=
EXTT15=
PLAYORDER=
